<?xml version="1.0" encoding="utf-8"?>
<!-- Generator: Adobe Illustrator 19.0.0, SVG Export Plug-In . SVG Version: 6.00 Build 0)  -->
<svg version="1.1" id="primary-layer" xmlns="http://www.w3.org/2000/svg" xmlns:xlink="http://www.w3.org/1999/xlink" x="0px"
	 y="0px" viewBox="0 0 544.6 544.6" style="enable-background:new 0 0 544.6 544.6;" xml:space="preserve">
<style type="text/css">
	.st0{fill:#5D79BB;}
	.st1{fill:none;}
	.st2{fill:#FFFFFF;}
</style>
<g id="circle">
	<path id="XMLID_6_" class="st0" d="M272.3,0C121.9,0,0,121.9,0,272.3s121.9,272.3,272.3,272.3s272.3-121.9,272.3-272.3
		S422.7,0,272.3,0z M272.3,534.9c-145,0-262.6-117.6-262.6-262.6S127.3,9.7,272.3,9.7s262.6,117.6,262.6,262.6
		S417.4,534.9,272.3,534.9z"/>
	<circle id="XMLID_2_" class="st0" cx="272.3" cy="272.3" r="258.6"/>
</g>
<g id="text">
	<rect id="XMLID_64_" x="25.7" y="328.6" class="st1" width="493.2" height="108.3"/>
	<path id="XMLID_3_" class="st2" d="M71.4,345.7h15.4v19.2c-4.2,1.4-8.8,2.1-13.8,2.1c-5.5,0-9.8-1.6-12.8-4.8s-4.5-7.7-4.5-13.6
		c0-5.8,1.6-10.2,4.9-13.5c3.3-3.2,7.9-4.8,13.8-4.8c2.2,0,4.4,0.2,6.4,0.6c2,0.4,3.7,1,5.2,1.6l-3.1,7.6c-2.6-1.3-5.4-1.9-8.5-1.9
		c-2.8,0-5,0.9-6.5,2.7s-2.3,4.4-2.3,7.8c0,3.3,0.7,5.9,2.1,7.6c1.4,1.8,3.4,2.6,6,2.6c1.4,0,2.8-0.1,4-0.4v-5.6h-6.4V345.7z"/>
	<path id="XMLID_8_" class="st2" d="M115.2,366.6H94v-35.7h21.2v7.7h-11.5v5.6h10.7v7.7h-10.7v6.7h11.5V366.6z"/>
	<path id="XMLID_13_" class="st2" d="M137.2,366.6h-9.6v-27.8h-8.7v-7.9h27.1v7.9h-8.7V366.6z"/>
	<path id="XMLID_15_" class="st2" d="M197.4,348.7c0,6-1.5,10.6-4.4,13.7c-2.9,3.1-7.3,4.7-12.9,4.7c-5.6,0-9.9-1.6-12.9-4.7
		c-3-3.1-4.5-7.7-4.5-13.7c0-5.9,1.5-10.5,4.5-13.6c3-3.1,7.3-4.7,13-4.7c5.7,0,10,1.6,12.9,4.7S197.4,342.7,197.4,348.7z
		 M172.9,348.7c0,6.9,2.4,10.4,7.2,10.4c2.4,0,4.3-0.8,5.4-2.5c1.2-1.7,1.8-4.3,1.8-7.8c0-3.6-0.6-6.2-1.8-7.9
		c-1.2-1.7-3-2.6-5.4-2.6C175.3,338.2,172.9,341.7,172.9,348.7z"/>
	<path id="XMLID_18_" class="st2" d="M237.8,366.6h-12.6l-13-25.1h-0.2c0.3,4,0.5,7,0.5,9.1v16.1h-8.5v-35.7h12.6l13,24.8h0.1
		c-0.2-3.6-0.3-6.5-0.3-8.7v-16.1h8.6V366.6z"/>
	<path id="XMLID_20_" class="st2" d="M266.8,366.6h-21.2v-35.7h21.2v7.7h-11.5v5.6h10.7v7.7h-10.7v6.7h11.5V366.6z"/>
	<path id="XMLID_22_" class="st2" d="M270.2,357v-7.6H284v7.6H270.2z"/>
	<path id="XMLID_24_" class="st2" d="M322.3,348.7c0,6-1.5,10.6-4.4,13.7c-2.9,3.1-7.3,4.7-12.9,4.7c-5.6,0-9.9-1.6-12.9-4.7
		c-3-3.1-4.5-7.7-4.5-13.7c0-5.9,1.5-10.5,4.5-13.6c3-3.1,7.3-4.7,13-4.7c5.7,0,10,1.6,12.9,4.7S322.3,342.7,322.3,348.7z
		 M297.7,348.7c0,6.9,2.4,10.4,7.2,10.4c2.4,0,4.3-0.8,5.4-2.5c1.2-1.7,1.8-4.3,1.8-7.8c0-3.6-0.6-6.2-1.8-7.9
		c-1.2-1.7-3-2.6-5.4-2.6C300.1,338.2,297.7,341.7,297.7,348.7z"/>
	<path id="XMLID_27_" class="st2" d="M362.7,366.6h-12.6l-13-25.1h-0.2c0.3,4,0.5,7,0.5,9.1v16.1h-8.5v-35.7h12.6l13,24.8h0.1
		c-0.2-3.6-0.3-6.5-0.3-8.7v-16.1h8.6V366.6z"/>
	<path id="XMLID_29_" class="st2" d="M367.6,357v-7.6h13.8v7.6H367.6z"/>
	<path id="XMLID_31_" class="st2" d="M419.7,348.7c0,6-1.5,10.6-4.4,13.7c-2.9,3.1-7.3,4.7-12.9,4.7c-5.6,0-9.9-1.6-12.9-4.7
		c-3-3.1-4.5-7.7-4.5-13.7c0-5.9,1.5-10.5,4.5-13.6c3-3.1,7.3-4.7,13-4.7c5.7,0,10,1.6,12.9,4.7S419.7,342.7,419.7,348.7z
		 M395.2,348.7c0,6.9,2.4,10.4,7.2,10.4c2.4,0,4.3-0.8,5.4-2.5c1.2-1.7,1.8-4.3,1.8-7.8c0-3.6-0.6-6.2-1.8-7.9
		c-1.2-1.7-3-2.6-5.4-2.6C397.6,338.2,395.2,341.7,395.2,348.7z"/>
	<path id="XMLID_34_" class="st2" d="M460.2,366.6h-12.6l-13-25.1h-0.2c0.3,4,0.5,7,0.5,9.1v16.1h-8.5v-35.7h12.6l13,24.8h0.1
		c-0.2-3.6-0.3-6.5-0.3-8.7v-16.1h8.6V366.6z"/>
	<path id="XMLID_36_" class="st2" d="M489.1,366.6h-21.2v-35.7h21.2v7.7h-11.5v5.6h10.7v7.7h-10.7v6.7h11.5V366.6z"/>
	<path id="XMLID_38_" class="st2" d="M126.2,394.3c0,4-1.2,7.1-3.5,9.2c-2.4,2.2-5.7,3.3-10,3.3H110v11.8h-9.6v-35.7h12.4
		c4.5,0,7.9,1,10.2,3C125.1,387.8,126.2,390.6,126.2,394.3z M110,398.9h1.8c1.4,0,2.6-0.4,3.5-1.2s1.3-1.9,1.3-3.4
		c0-2.4-1.3-3.6-4-3.6H110V398.9z"/>
	<path id="XMLID_41_" class="st2" d="M141.5,405.6v13h-9.6v-35.7h11.7c9.7,0,14.6,3.5,14.6,10.5c0,4.1-2,7.3-6.1,9.6l10.4,15.6
		h-10.9l-7.6-13H141.5z M141.5,398.4h1.8c3.4,0,5.1-1.5,5.1-4.5c0-2.5-1.7-3.7-5-3.7h-1.9V398.4z"/>
	<path id="XMLID_44_" class="st2" d="M199.1,400.7c0,6-1.5,10.6-4.4,13.7c-2.9,3.1-7.3,4.7-12.9,4.7c-5.6,0-9.9-1.6-12.9-4.7
		c-3-3.1-4.5-7.7-4.5-13.7c0-5.9,1.5-10.5,4.5-13.6c3-3.1,7.3-4.7,13-4.7c5.7,0,10,1.6,12.9,4.7S199.1,394.7,199.1,400.7z
		 M174.6,400.7c0,6.9,2.4,10.4,7.2,10.4c2.4,0,4.3-0.8,5.4-2.5c1.2-1.7,1.8-4.3,1.8-7.8c0-3.6-0.6-6.2-1.8-7.9
		c-1.2-1.7-3-2.6-5.4-2.6C177,390.2,174.6,393.7,174.6,400.7z"/>
	<path id="XMLID_47_" class="st2" d="M202.8,429.8c-1.8,0-3.4-0.2-5-0.5v-7.5c0.5,0.1,1.1,0.2,1.7,0.3c0.6,0.1,1.2,0.2,1.9,0.2
		c1.6,0,2.7-0.5,3.4-1.4c0.7-1,1-2.6,1-4.9v-33h9.7v32.2c0,4.8-1.1,8.5-3.2,11C210.2,428.6,207,429.8,202.8,429.8z"/>
	<path id="XMLID_49_" class="st2" d="M244.4,418.6h-21.2v-35.7h21.2v7.7h-11.5v5.6h10.7v7.7h-10.7v6.7h11.5V418.6z"/>
	<path id="XMLID_51_" class="st2" d="M266.5,390.3c-2.3,0-4.1,0.9-5.4,2.8c-1.3,1.9-1.9,4.5-1.9,7.8c0,6.9,2.6,10.3,7.8,10.3
		c1.6,0,3.1-0.2,4.6-0.7c1.5-0.4,3-1,4.5-1.6v8.2c-3,1.3-6.3,2-10.1,2c-5.4,0-9.5-1.6-12.4-4.7c-2.9-3.1-4.3-7.6-4.3-13.5
		c0-3.7,0.7-6.9,2.1-9.7c1.4-2.8,3.4-5,6-6.5c2.6-1.5,5.7-2.3,9.2-2.3c3.9,0,7.5,0.8,11.1,2.5l-3,7.6c-1.3-0.6-2.6-1.1-4-1.6
		S268,390.3,266.5,390.3z"/>
	<path id="XMLID_53_" class="st2" d="M298.8,418.6h-9.6v-27.8h-8.7v-7.9h27.1v7.9h-8.7V418.6z"/>
	<path id="XMLID_55_" class="st2" d="M356.2,418.6h-9.7V404h-11.2v14.6h-9.7v-35.7h9.7v13.2h11.2v-13.2h9.7V418.6z"/>
	<path id="XMLID_57_" class="st2" d="M385.1,418.6h-21.2v-35.7h21.2v7.7h-11.5v5.6h10.7v7.7h-10.7v6.7h11.5V418.6z"/>
	<path id="XMLID_59_" class="st2" d="M391.3,418.6v-35.7h9.6v27.9h13.7v7.8H391.3z"/>
	<path id="XMLID_61_" class="st2" d="M446.4,394.3c0,4-1.2,7.1-3.5,9.2c-2.4,2.2-5.7,3.3-10,3.3h-2.7v11.8h-9.6v-35.7h12.4
		c4.5,0,7.9,1,10.2,3C445.2,387.8,446.4,390.6,446.4,394.3z M430.1,398.9h1.8c1.4,0,2.6-0.4,3.5-1.2c0.9-0.8,1.3-1.9,1.3-3.4
		c0-2.4-1.3-3.6-4-3.6h-2.5V398.9z"/>
</g>
<g id="icon">
	<path id="XMLID_11_" class="st2" d="M255,87.9L255,87.9c47.7,0,86.4,31.3,86.4,69.9s-38.7,69.9-86.4,69.9c-4.6,0-9.1-0.3-13.5-0.8
		c-18.6,18.5-40,21.8-61.4,22.3v-4.5c11.6-5.6,20.9-15.9,20.9-27.7c0-1.6-0.1-3.2-0.4-4.8c-19.5-12.8-32-32.4-32-54.4
		C168.6,119.2,207.3,87.9,255,87.9z M347.9,244.7c0,10.1,6.5,18.9,16.6,23.7v3.9c-18.6-0.4-35.6-3.3-51.7-19.1
		c-3.8,0.5-7.7,0.7-11.7,0.7c-17.2,0-33-4.6-45.7-12.4c26.1-0.1,50.6-8.4,69.3-23.5c9.4-7.6,16.8-16.5,22-26.5
		c5.5-10.6,8.3-21.9,8.3-33.6c0-1.9-0.1-3.8-0.2-5.6C368,163.1,376,177.8,376,194c0,18.8-10.8,35.6-27.8,46.6
		C348.1,241.9,347.9,243.3,347.9,244.7z"/>
</g>
<g id="XMLID_1_">
</g>
<g id="XMLID_65_">
</g>
<g id="XMLID_66_">
</g>
<g id="XMLID_67_">
</g>
<g id="XMLID_68_">
</g>
<g id="XMLID_69_">
</g>
</svg>
