<?xml version="1.0" encoding="utf-8"?>
<!-- Generator: Adobe Illustrator 19.0.0, SVG Export Plug-In . SVG Version: 6.00 Build 0)  -->
<svg version="1.1" id="primary-layer" xmlns="http://www.w3.org/2000/svg" xmlns:xlink="http://www.w3.org/1999/xlink" x="0px"
	 y="0px" viewBox="0 0 544.6 544.6" style="enable-background:new 0 0 544.6 544.6;" xml:space="preserve">
<style type="text/css">
	.st0{fill:#BB82B9;}
	.st1{fill:none;}
	.st2{fill:#FFFFFF;}
</style>
<g id="circle">
	<path id="XMLID_6_" class="st0" d="M272.3,0C121.9,0,0,121.9,0,272.3s121.9,272.3,272.3,272.3s272.3-121.9,272.3-272.3
		S422.7,0,272.3,0z M272.3,534.9c-145,0-262.6-117.6-262.6-262.6S127.3,9.7,272.3,9.7s262.6,117.6,262.6,262.6
		S417.4,534.9,272.3,534.9z"/>
	<circle id="XMLID_2_" class="st0" cx="272.3" cy="272.3" r="258.6"/>
</g>
<g id="text">
	<rect id="XMLID_61_" x="25.7" y="328.6" class="st1" width="493.2" height="108.3"/>
	<path id="XMLID_3_" class="st2" d="M86.6,330.9h10.8l-11.7,35.7H74.4l-11.6-35.7h10.8l4.9,18.1c1,4,1.6,6.8,1.7,8.4
		c0.1-1.1,0.3-2.6,0.7-4.3s0.6-3.1,0.9-4L86.6,330.9z"/>
	<path id="XMLID_10_" class="st2" d="M101.3,366.6v-35.7h9.7v35.7H101.3z"/>
	<path id="XMLID_20_" class="st2" d="M139.9,366.6h-21.2v-35.7h21.2v7.7h-11.5v5.6H139v7.7h-10.7v6.7h11.5V366.6z"/>
	<path id="XMLID_25_" class="st2" d="M184.7,366.6h-11.4l-3.4-15.6c-0.2-0.7-0.4-1.9-0.8-3.9c-0.4-1.9-0.6-3.6-0.8-4.9
		c-0.1,1.1-0.3,2.4-0.6,3.9c-0.3,1.6-0.6,3-0.9,4.3c-0.3,1.3-1.5,6.7-3.6,16h-11.4l-8.8-35.7h9.3l3.9,17.9c0.9,4,1.5,7.1,1.8,9.4
		c0.2-1.7,0.6-3.9,1.1-6.8c0.5-2.8,1.1-5.2,1.5-7.1l3.1-13.5h8.9l3.1,13.5c0.5,2.2,1,4.7,1.6,7.5s0.9,4.9,1.1,6.3
		c0.2-1.8,0.8-4.9,1.7-9.4l4-17.9h9.3L184.7,366.6z"/>
	<path id="XMLID_29_" class="st2" d="M234.4,355.8c0,2.2-0.6,4.2-1.7,5.9c-1.1,1.7-2.7,3.1-4.9,4c-2.1,1-4.6,1.4-7.4,1.4
		c-2.4,0-4.4-0.2-6-0.5c-1.6-0.3-3.3-0.9-5-1.7v-8.6c1.8,0.9,3.8,1.7,5.7,2.2c2,0.5,3.8,0.8,5.5,0.8c1.4,0,2.5-0.2,3.2-0.7
		c0.7-0.5,1-1.1,1-1.9c0-0.5-0.1-0.9-0.4-1.3c-0.3-0.4-0.7-0.7-1.3-1.1c-0.6-0.4-2.2-1.1-4.8-2.3c-2.3-1.1-4.1-2.1-5.2-3.1
		c-1.2-1-2-2.1-2.6-3.4s-0.8-2.8-0.8-4.6c0-3.3,1.2-5.9,3.6-7.7c2.4-1.8,5.7-2.8,9.9-2.8c3.7,0,7.5,0.9,11.3,2.6l-3,7.4
		c-3.3-1.5-6.2-2.3-8.6-2.3c-1.3,0-2.2,0.2-2.7,0.7s-0.9,1-0.9,1.6c0,0.7,0.4,1.3,1.1,1.9s2.7,1.6,5.9,3c3.1,1.4,5.2,2.9,6.4,4.5
		C233.8,351.3,234.4,353.3,234.4,355.8z"/>
	<path id="XMLID_31_" class="st2" d="M273.3,348.7c0,6-1.5,10.6-4.4,13.7c-2.9,3.1-7.3,4.7-12.9,4.7c-5.6,0-9.9-1.6-12.9-4.7
		c-3-3.1-4.5-7.7-4.5-13.7c0-5.9,1.5-10.5,4.5-13.6c3-3.1,7.3-4.7,13-4.7c5.7,0,10,1.6,12.9,4.7S273.3,342.7,273.3,348.7z
		 M248.7,348.7c0,6.9,2.4,10.4,7.2,10.4c2.4,0,4.3-0.8,5.4-2.5c1.2-1.7,1.8-4.3,1.8-7.8c0-3.6-0.6-6.2-1.8-7.9
		c-1.2-1.7-3-2.6-5.4-2.6C251.2,338.2,248.7,341.7,248.7,348.7z"/>
	<path id="XMLID_34_" class="st2" d="M289.2,366.6h-9.5v-35.7h21.1v7.7h-11.6v6.8h10.7v7.7h-10.7V366.6z"/>
	<path id="XMLID_36_" class="st2" d="M322.5,366.6h-9.6v-27.8h-8.7v-7.9h27.1v7.9h-8.7V366.6z"/>
	<path id="XMLID_38_" class="st2" d="M374.8,366.6h-11.4L360,351c-0.2-0.7-0.4-1.9-0.8-3.9c-0.3-1.9-0.6-3.6-0.8-4.9
		c-0.1,1.1-0.3,2.4-0.6,3.9c-0.3,1.6-0.6,3-0.9,4.3c-0.3,1.3-1.5,6.7-3.6,16H342l-8.8-35.7h9.3l3.9,17.9c0.9,4,1.5,7.1,1.8,9.4
		c0.2-1.7,0.6-3.9,1.1-6.8c0.5-2.8,1.1-5.2,1.5-7.1l3.1-13.5h8.9l3.1,13.5c0.5,2.2,1,4.7,1.6,7.5s0.9,4.9,1.1,6.3
		c0.2-1.8,0.8-4.9,1.7-9.4l4-17.9h9.3L374.8,366.6z"/>
	<path id="XMLID_40_" class="st2" d="M410.1,366.6l-1.8-6.7h-11.6l-1.8,6.7h-10.6l11.6-35.8h12.9l11.8,35.8H410.1z M406.3,352
		l-1.5-5.9c-0.4-1.3-0.8-3-1.3-5.1c-0.5-2.1-0.9-3.5-1-4.4c-0.1,0.8-0.4,2.2-0.9,4.1c-0.4,1.9-1.4,5.7-2.9,11.3H406.3z"/>
	<path id="XMLID_43_" class="st2" d="M434.1,353.6v13h-9.6v-35.7h11.7c9.7,0,14.6,3.5,14.6,10.5c0,4.1-2,7.3-6.1,9.6l10.4,15.6
		h-10.9l-7.6-13H434.1z M434.1,346.4h1.8c3.4,0,5.1-1.5,5.1-4.5c0-2.5-1.7-3.7-5-3.7h-1.9V346.4z"/>
	<path id="XMLID_46_" class="st2" d="M479.5,366.6h-21.2v-35.7h21.2v7.7H468v5.6h10.7v7.7H468v6.7h11.5V366.6z"/>
	<path id="XMLID_48_" class="st2" d="M197.9,397.7h15.4v19.2c-4.2,1.4-8.8,2.1-13.8,2.1c-5.5,0-9.8-1.6-12.8-4.8s-4.5-7.7-4.5-13.6
		c0-5.8,1.6-10.2,4.9-13.5c3.3-3.2,7.9-4.8,13.8-4.8c2.2,0,4.4,0.2,6.4,0.6c2,0.4,3.7,1,5.2,1.6l-3.1,7.6c-2.6-1.3-5.4-1.9-8.5-1.9
		c-2.8,0-5,0.9-6.5,2.7s-2.3,4.4-2.3,7.8c0,3.3,0.7,5.9,2.1,7.6c1.4,1.8,3.4,2.6,6,2.6c1.4,0,2.8-0.1,4-0.4v-5.6h-6.4V397.7z"/>
	<path id="XMLID_50_" class="st2" d="M250.9,382.9v21.5c0,4.7-1.3,8.3-4,10.9c-2.6,2.6-6.5,3.8-11.4,3.8c-4.9,0-8.6-1.2-11.2-3.7
		c-2.6-2.5-3.9-6.1-3.9-10.7v-21.7h9.7v20.9c0,2.5,0.5,4.4,1.4,5.5c0.9,1.1,2.3,1.7,4.2,1.7c2,0,3.4-0.6,4.3-1.7
		c0.9-1.1,1.3-3,1.3-5.6v-20.9H250.9z"/>
	<path id="XMLID_52_" class="st2" d="M258.4,418.6v-35.7h9.7v35.7H258.4z"/>
	<path id="XMLID_54_" class="st2" d="M306.1,400c0,6-1.6,10.5-4.9,13.8c-3.3,3.2-7.9,4.8-13.8,4.8h-11.5v-35.7h12.4
		c5.7,0,10.2,1.5,13.3,4.4C304.5,390.2,306.1,394.5,306.1,400z M296.1,400.3c0-3.3-0.6-5.7-1.9-7.3c-1.3-1.6-3.3-2.4-5.9-2.4h-2.8
		v20h2.1c2.9,0,5.1-0.9,6.4-2.6C295.4,406.4,296.1,403.8,296.1,400.3z"/>
	<path id="XMLID_57_" class="st2" d="M333.7,418.6h-21.2v-35.7h21.2v7.7h-11.5v5.6h10.7v7.7h-10.7v6.7h11.5V418.6z"/>
	<path id="XMLID_59_" class="st2" d="M363.3,407.8c0,2.2-0.6,4.2-1.7,5.9c-1.1,1.7-2.7,3.1-4.9,4c-2.1,1-4.6,1.4-7.4,1.4
		c-2.4,0-4.4-0.2-6-0.5c-1.6-0.3-3.3-0.9-5-1.7v-8.6c1.8,0.9,3.8,1.7,5.7,2.2c2,0.5,3.8,0.8,5.5,0.8c1.4,0,2.5-0.2,3.1-0.7
		c0.7-0.5,1-1.1,1-1.9c0-0.5-0.1-0.9-0.4-1.3c-0.3-0.4-0.7-0.7-1.3-1.1c-0.6-0.4-2.2-1.1-4.7-2.3c-2.3-1.1-4.1-2.1-5.2-3.1
		c-1.2-1-2-2.1-2.6-3.4c-0.6-1.3-0.8-2.8-0.8-4.6c0-3.3,1.2-5.9,3.6-7.7s5.7-2.8,9.9-2.8c3.7,0,7.5,0.9,11.3,2.6l-3,7.4
		c-3.3-1.5-6.2-2.3-8.6-2.3c-1.3,0-2.2,0.2-2.7,0.7c-0.6,0.4-0.9,1-0.9,1.6c0,0.7,0.4,1.3,1.1,1.9c0.7,0.6,2.7,1.6,5.9,3
		c3.1,1.4,5.2,2.9,6.4,4.5C362.7,403.3,363.3,405.3,363.3,407.8z"/>
</g>
<g id="icon">
	<g id="XMLID_8_">
		<g id="XMLID_9_">
			<g id="XMLID_23_">
				<g id="XMLID_26_">
					<path id="XMLID_27_" class="st2" d="M314.8,280.2h-85.2c-14.6,0-26.7-12.1-26.7-26.7V125.7C203,111.1,215,99,229.6,99h38.7
						c4,0,8.7,2.1,12.1,4l57.3,57.3c3.3,3.3,4,7.3,4,12.1v81.2C341.5,268.2,330.2,280.2,314.8,280.2z M229.6,109.6
						c-8.7,0-16,7.3-16,16v127.9c0,8.7,7.3,16,16,16h85.2c8.7,0,16-7.3,16-16v-81.2c0-1.2-1.2-3.3-1.2-4l-57.3-57.3
						c-1.2-1.2-2.1-1.2-4-1.2L229.6,109.6L229.6,109.6z"/>
				</g>
				<g id="XMLID_24_">
					<path id="XMLID_12_" class="st2" d="M277.5,104.4v42.5c0,8.7,7.3,16,16,16h42.7v10.6h-42.7c-14.6,0-26.7-12.1-26.7-26.7v-42.5
						H277.5z"/>
				</g>
			</g>
			<g id="XMLID_21_">
				<path id="XMLID_11_" class="st2" d="M304.2,253.6h-64c-3.3,0-5.4-2.1-5.4-5.4s2.1-5.4,5.4-5.4h64c3.3,0,5.4,2.1,5.4,5.4
					S307.5,253.6,304.2,253.6z"/>
			</g>
			<g id="XMLID_19_">
				<path id="XMLID_15_" class="st2" d="M304.2,226.9h-64c-3.3,0-5.4-2.1-5.4-5.4s2.1-5.4,5.4-5.4h64c3.3,0,5.4,2.1,5.4,5.4
					C309.6,225,307.5,226.9,304.2,226.9z"/>
			</g>
			<g id="XMLID_17_">
				<path id="XMLID_16_" class="st2" d="M304.2,200.2h-64c-3.3,0-5.4-2.1-5.4-5.4s2.1-5.4,5.4-5.4h64c3.3,0,5.4,2.1,5.4,5.4
					C309.6,198.4,307.5,200.2,304.2,200.2z"/>
			</g>
		</g>
	</g>
</g>
<g id="XMLID_1_">
</g>
<g id="XMLID_62_">
</g>
<g id="XMLID_63_">
</g>
<g id="XMLID_64_">
</g>
<g id="XMLID_65_">
</g>
<g id="XMLID_66_">
</g>
</svg>
