<?xml version="1.0" encoding="utf-8"?>
<!-- Generator: Adobe Illustrator 19.0.0, SVG Export Plug-In . SVG Version: 6.00 Build 0)  -->
<svg version="1.1" id="primary-layer" xmlns="http://www.w3.org/2000/svg" xmlns:xlink="http://www.w3.org/1999/xlink" x="0px"
	 y="0px" viewBox="0 0 544.6 544.6" style="enable-background:new 0 0 544.6 544.6;" xml:space="preserve">
<style type="text/css">
	.st0{fill:#59C2AB;}
	.st1{fill:none;}
	.st2{fill:#FFFFFF;}
</style>
<g id="circle">
	<path id="XMLID_6_" class="st0" d="M272.3,0C121.9,0,0,121.9,0,272.3s121.9,272.3,272.3,272.3s272.3-121.9,272.3-272.3
		S422.7,0,272.3,0z M272.3,534.9c-145,0-262.6-117.6-262.6-262.6S127.3,9.7,272.3,9.7s262.6,117.6,262.6,262.6
		S417.4,534.9,272.3,534.9z"/>
	<circle id="XMLID_2_" class="st0" cx="272.3" cy="272.3" r="258.6"/>
</g>
<g id="text">
	<rect id="XMLID_67_" x="25.7" y="328.6" class="st1" width="493.2" height="108.3"/>
	<path id="XMLID_3_" class="st2" d="M57.7,351.1v11.7H49v-32.1h10.5c8.7,0,13.1,3.2,13.1,9.5c0,3.7-1.8,6.6-5.4,8.6l9.4,14h-9.8
		l-6.8-11.7H57.7z M57.7,344.6h1.6c3,0,4.5-1.3,4.5-4c0-2.2-1.5-3.3-4.5-3.3h-1.7V344.6z"/>
	<path id="XMLID_16_" class="st2" d="M98.5,362.8H79.5v-32.1h19.1v7H88.1v5.1h9.6v7h-9.6v6.1h10.4V362.8z"/>
	<path id="XMLID_19_" class="st2" d="M134.2,346.7c0,7.3-2.3,12.2-6.9,14.7l7.8,9h-10.8l-5.7-7.1l0,0v0l0,0c-5,0-8.9-1.4-11.6-4.2
		c-2.7-2.8-4-6.9-4-12.3c0-5.3,1.3-9.4,4-12.2c2.7-2.8,6.6-4.2,11.7-4.2c5.1,0,9,1.4,11.6,4.2S134.2,341.3,134.2,346.7z
		 M112.1,346.7c0,6.2,2.2,9.3,6.5,9.3c2.2,0,3.8-0.8,4.9-2.3c1.1-1.5,1.6-3.9,1.6-7.1c0-3.2-0.5-5.6-1.6-7.1
		c-1.1-1.5-2.7-2.3-4.8-2.3C114.3,337.3,112.1,340.4,112.1,346.7z"/>
	<path id="XMLID_23_" class="st2" d="M167.3,330.7V350c0,4.2-1.2,7.5-3.6,9.8c-2.4,2.3-5.8,3.5-10.3,3.5c-4.4,0-7.7-1.1-10.1-3.4
		c-2.4-2.2-3.5-5.5-3.5-9.7v-19.5h8.7v18.9c0,2.3,0.4,3.9,1.3,4.9s2.1,1.5,3.8,1.5c1.8,0,3.1-0.5,3.9-1.5c0.8-1,1.2-2.7,1.2-5v-18.8
		H167.3z"/>
	<path id="XMLID_25_" class="st2" d="M193.2,362.8h-19.1v-32.1h19.1v7h-10.4v5.1h9.6v7h-9.6v6.1h10.4V362.8z"/>
	<path id="XMLID_27_" class="st2" d="M219.8,353c0,2-0.5,3.8-1.5,5.3c-1,1.5-2.5,2.7-4.4,3.6c-1.9,0.9-4.1,1.3-6.7,1.3
		c-2.1,0-3.9-0.2-5.4-0.5c-1.5-0.3-3-0.8-4.5-1.6v-7.7c1.7,0.8,3.4,1.5,5.2,2c1.8,0.5,3.4,0.7,4.9,0.7c1.3,0,2.2-0.2,2.8-0.7
		c0.6-0.4,0.9-1,0.9-1.7c0-0.4-0.1-0.8-0.4-1.2c-0.2-0.3-0.6-0.7-1.2-1c-0.5-0.3-2-1-4.3-2.1c-2.1-1-3.7-1.9-4.7-2.8
		s-1.8-1.9-2.3-3.1c-0.5-1.2-0.8-2.5-0.8-4.1c0-3,1.1-5.3,3.2-6.9s5.1-2.5,8.9-2.5c3.3,0,6.7,0.8,10.2,2.3l-2.7,6.7
		c-3-1.4-5.6-2.1-7.8-2.1c-1.1,0-1.9,0.2-2.5,0.6s-0.8,0.9-0.8,1.5c0,0.6,0.3,1.2,1,1.7s2.4,1.4,5.3,2.7c2.8,1.2,4.7,2.6,5.8,4
		C219.2,349.1,219.8,350.9,219.8,353z"/>
	<path id="XMLID_29_" class="st2" d="M238.9,362.8h-8.7v-25h-7.8v-7.1h24.3v7.1h-7.8V362.8z"/>
	<path id="XMLID_31_" class="st2" d="M282.7,362.8l-1.6-6h-10.4l-1.6,6h-9.5l10.5-32.3h11.6l10.6,32.3H282.7z M279.3,349.7l-1.4-5.3
		c-0.3-1.2-0.7-2.7-1.2-4.5c-0.5-1.9-0.8-3.2-0.9-4c-0.1,0.7-0.4,2-0.8,3.7c-0.4,1.7-1.2,5.1-2.6,10.1H279.3z"/>
	<path id="XMLID_34_" class="st2" d="M321.7,337.3c-2.1,0-3.7,0.8-4.8,2.5c-1.2,1.7-1.7,4-1.7,7c0,6.2,2.4,9.3,7.1,9.3
		c1.4,0,2.8-0.2,4.1-0.6c1.3-0.4,2.7-0.9,4-1.4v7.3c-2.7,1.2-5.7,1.8-9.1,1.8c-4.8,0-8.6-1.4-11.2-4.2c-2.6-2.8-3.9-6.9-3.9-12.2
		c0-3.3,0.6-6.2,1.9-8.8c1.3-2.5,3.1-4.5,5.4-5.8c2.4-1.4,5.1-2,8.3-2c3.5,0,6.8,0.8,10,2.3l-2.7,6.8c-1.2-0.6-2.4-1-3.6-1.4
		C324.3,337.5,323.1,337.3,321.7,337.3z"/>
	<path id="XMLID_36_" class="st2" d="M363.9,330.7V350c0,4.2-1.2,7.5-3.6,9.8c-2.4,2.3-5.8,3.5-10.3,3.5c-4.4,0-7.7-1.1-10.1-3.4
		c-2.4-2.2-3.5-5.5-3.5-9.7v-19.5h8.7v18.9c0,2.3,0.4,3.9,1.3,4.9s2.1,1.5,3.8,1.5c1.8,0,3.1-0.5,3.9-1.5c0.8-1,1.2-2.7,1.2-5v-18.8
		H363.9z"/>
	<path id="XMLID_38_" class="st2" d="M391.7,353c0,2-0.5,3.8-1.5,5.3c-1,1.5-2.5,2.7-4.4,3.6c-1.9,0.9-4.1,1.3-6.7,1.3
		c-2.1,0-3.9-0.2-5.4-0.5c-1.5-0.3-3-0.8-4.5-1.6v-7.7c1.7,0.8,3.4,1.5,5.2,2c1.8,0.5,3.4,0.7,4.9,0.7c1.3,0,2.2-0.2,2.8-0.7
		c0.6-0.4,0.9-1,0.9-1.7c0-0.4-0.1-0.8-0.4-1.2c-0.2-0.3-0.6-0.7-1.2-1c-0.5-0.3-2-1-4.3-2.1c-2.1-1-3.7-1.9-4.7-2.8
		c-1-0.9-1.8-1.9-2.3-3.1c-0.5-1.2-0.8-2.5-0.8-4.1c0-3,1.1-5.3,3.2-6.9c2.2-1.7,5.1-2.5,8.9-2.5c3.3,0,6.7,0.8,10.2,2.3l-2.7,6.7
		c-3-1.4-5.6-2.1-7.8-2.1c-1.1,0-1.9,0.2-2.5,0.6c-0.5,0.4-0.8,0.9-0.8,1.5c0,0.6,0.3,1.2,1,1.7c0.7,0.5,2.4,1.4,5.3,2.7
		c2.8,1.2,4.7,2.6,5.8,4C391.1,349.1,391.7,350.9,391.7,353z"/>
	<path id="XMLID_40_" class="st2" d="M410.8,362.8h-8.7v-25h-7.8v-7.1h24.3v7.1h-7.8V362.8z"/>
	<path id="XMLID_42_" class="st2" d="M453.3,346.7c0,5.4-1.3,9.5-4,12.3s-6.5,4.2-11.6,4.2c-5,0-8.9-1.4-11.6-4.2
		c-2.7-2.8-4-6.9-4-12.3c0-5.3,1.3-9.4,4-12.2c2.7-2.8,6.6-4.2,11.7-4.2c5.1,0,9,1.4,11.6,4.2S453.3,341.3,453.3,346.7z
		 M431.2,346.7c0,6.2,2.2,9.3,6.5,9.3c2.2,0,3.8-0.8,4.9-2.3c1.1-1.5,1.6-3.9,1.6-7.1c0-3.2-0.5-5.6-1.6-7.1
		c-1.1-1.5-2.7-2.3-4.8-2.3C433.3,337.3,431.2,340.4,431.2,346.7z"/>
	<path id="XMLID_45_" class="st2" d="M473.1,362.8l-6.6-23.1h-0.2c0.3,3.9,0.5,7,0.5,9.2v14h-7.7v-32.1h11.6l6.7,22.8h0.2l6.6-22.8
		h11.6v32.1h-8v-14.1c0-0.7,0-1.5,0-2.4c0-0.9,0.1-3.1,0.3-6.6h-0.2l-6.5,23.1H473.1z"/>
	<path id="XMLID_47_" class="st2" d="M176.1,414.8h-10.3l-3.1-14c-0.1-0.6-0.4-1.8-0.7-3.5s-0.5-3.2-0.7-4.4c-0.1,1-0.3,2.1-0.6,3.5
		c-0.3,1.4-0.5,2.7-0.8,3.9c-0.3,1.2-1.3,6-3.2,14.4h-10.3l-8-32.1h8.4l3.5,16.1c0.8,3.6,1.3,6.4,1.6,8.5c0.2-1.5,0.5-3.5,1-6.1
		c0.5-2.6,0.9-4.7,1.4-6.4l2.8-12.2h8l2.7,12.2c0.5,1.9,0.9,4.2,1.4,6.7s0.8,4.5,1,5.7c0.2-1.6,0.7-4.4,1.6-8.5l3.6-16.1h8.4
		L176.1,414.8z"/>
	<path id="XMLID_49_" class="st2" d="M218.2,398.7c0,5.4-1.3,9.5-4,12.3c-2.7,2.8-6.5,4.2-11.6,4.2c-5,0-8.9-1.4-11.6-4.2
		c-2.7-2.8-4-6.9-4-12.3c0-5.3,1.3-9.4,4-12.2c2.7-2.8,6.6-4.2,11.7-4.2c5.1,0,9,1.4,11.6,4.2C216.9,389.2,218.2,393.3,218.2,398.7z
		 M196.1,398.7c0,6.2,2.2,9.3,6.5,9.3c2.2,0,3.8-0.8,4.9-2.3c1.1-1.5,1.6-3.9,1.6-7.1c0-3.2-0.5-5.6-1.6-7.1
		c-1.1-1.5-2.7-2.3-4.8-2.3C198.3,389.3,196.1,392.4,196.1,398.7z"/>
	<path id="XMLID_52_" class="st2" d="M232.7,403.1v11.7H224v-32.1h10.5c8.7,0,13.1,3.2,13.1,9.5c0,3.7-1.8,6.6-5.4,8.6l9.4,14h-9.8
		l-6.8-11.7H232.7z M232.7,396.6h1.6c3,0,4.5-1.3,4.5-4c0-2.2-1.5-3.3-4.5-3.3h-1.7V396.6z"/>
	<path id="XMLID_55_" class="st2" d="M281.9,414.8h-9.8l-6.3-12.3l-2.6,1.5v10.7h-8.7v-32.1h8.7v14c0.4-0.9,1.3-2.2,2.7-4.1l6.7-9.8
		h9.5L272,397.1L281.9,414.8z"/>
	<path id="XMLID_57_" class="st2" d="M306.4,405c0,2-0.5,3.8-1.5,5.3c-1,1.5-2.5,2.7-4.4,3.6c-1.9,0.9-4.1,1.3-6.7,1.3
		c-2.1,0-3.9-0.2-5.4-0.5c-1.5-0.3-3-0.8-4.5-1.6v-7.7c1.7,0.8,3.4,1.5,5.2,2c1.8,0.5,3.4,0.7,4.9,0.7c1.3,0,2.2-0.2,2.8-0.7
		c0.6-0.4,0.9-1,0.9-1.7c0-0.4-0.1-0.8-0.4-1.2c-0.2-0.3-0.6-0.7-1.2-1c-0.5-0.3-2-1-4.3-2.1c-2.1-1-3.7-1.9-4.7-2.8
		c-1-0.9-1.8-1.9-2.3-3.1c-0.5-1.2-0.8-2.5-0.8-4.1c0-3,1.1-5.3,3.2-6.9c2.2-1.7,5.1-2.5,8.9-2.5c3.3,0,6.7,0.8,10.2,2.3l-2.7,6.7
		c-3-1.4-5.6-2.1-7.8-2.1c-1.1,0-1.9,0.2-2.5,0.6c-0.5,0.4-0.8,0.9-0.8,1.5c0,0.6,0.3,1.2,1,1.7c0.7,0.5,2.4,1.4,5.3,2.7
		c2.8,1.2,4.7,2.6,5.8,4C305.9,401.1,306.4,402.9,306.4,405z"/>
	<path id="XMLID_59_" class="st2" d="M338.9,414.8h-8.7v-13.1h-10.1v13.1h-8.7v-32.1h8.7v11.9h10.1v-11.9h8.7V414.8z"/>
	<path id="XMLID_61_" class="st2" d="M375.9,398.7c0,5.4-1.3,9.5-4,12.3s-6.5,4.2-11.6,4.2c-5,0-8.9-1.4-11.6-4.2
		c-2.7-2.8-4-6.9-4-12.3c0-5.3,1.3-9.4,4-12.2c2.7-2.8,6.6-4.2,11.7-4.2c5.1,0,9,1.4,11.6,4.2S375.9,393.3,375.9,398.7z
		 M353.8,398.7c0,6.2,2.2,9.3,6.5,9.3c2.2,0,3.8-0.8,4.9-2.3c1.1-1.5,1.6-3.9,1.6-7.1c0-3.2-0.5-5.6-1.6-7.1
		c-1.1-1.5-2.7-2.3-4.8-2.3C356,389.3,353.8,392.4,353.8,398.7z"/>
	<path id="XMLID_64_" class="st2" d="M405,392.9c0,3.6-1.1,6.4-3.2,8.3c-2.1,2-5.1,2.9-9,2.9h-2.4v10.7h-8.7v-32.1h11.1
		c4.1,0,7.1,0.9,9.1,2.7S405,389.6,405,392.9z M390.4,397.1h1.6c1.3,0,2.3-0.4,3.1-1.1c0.8-0.7,1.2-1.7,1.2-3c0-2.2-1.2-3.3-3.6-3.3
		h-2.2V397.1z"/>
</g>
<g id="icon">
	<path id="XMLID_21_" class="st2" d="M186.5,166.4c1,3.6,2.5,7,4.3,10.2l-5.2,6.6c-1.7,2.1-1.5,5.2,0.4,7.1l8.9,8.9
		c1.9,1.9,5,2.1,7.1,0.4l6.5-5.2c3.3,1.9,6.9,3.4,10.6,4.5l1,8.4c0.3,2.7,2.6,4.7,5.3,4.7h12.7c2.7,0,5-2,5.3-4.7l0.9-8.1
		c4-1,7.8-2.6,11.4-4.6l6.3,5c2.1,1.7,5.2,1.5,7.1-0.4l8.9-8.9c1.9-1.9,2.1-5,0.4-7.1l-4.9-6.2c2-3.5,3.6-7.3,4.7-11.2l7.5-0.9
		c2.7-0.3,4.7-2.6,4.7-5.3v-12.7c0-2.7-2-5-4.7-5.3l-7.4-0.9c-1-3.9-2.5-7.6-4.5-11.1l4.6-5.8c1.7-2.1,1.5-5.2-0.4-7.1l-8.9-8.9
		c-1.9-1.9-5-2.1-7.1-0.4l-5.6,4.5c-3.6-2.1-7.5-3.8-11.6-4.9l-0.8-7.3c-0.3-2.7-2.6-4.7-5.3-4.7H226c-2.7,0-5,2-5.3,4.7l-0.8,7.3
		c-4.2,1.1-8.2,2.8-11.9,5l-5.8-4.6c-2.1-1.7-5.2-1.5-7.1,0.4l-8.9,8.9c-1.9,1.9-2.1,5-0.4,7.1l4.9,6.2c-2,3.5-3.4,7.3-4.4,11.2
		l-7.8,0.9c-2.7,0.3-4.7,2.6-4.7,5.3v12.7c0,2.7,2,5,4.7,5.3L186.5,166.4z M232.3,132.1c11.5,0,20.9,9.4,20.9,20.9
		s-9.4,20.9-20.9,20.9c-11.5,0-20.9-9.4-20.9-20.9S220.8,132.1,232.3,132.1z"/>
	<path id="XMLID_18_" class="st2" d="M357.5,169.5l-6.7-5.6c-2.1-1.7-5.1-1.7-7,0.2l-3.7,3.5c-3.1-1.5-6.4-2.6-9.8-3.2l-1-5.1
		c-0.5-2.6-3-4.5-5.6-4.2l-8.7,0.7c-2.7,0.2-4.8,2.4-4.9,5.1l-0.2,5.2c-3.3,1.2-6.5,2.9-9.4,4.9L296,168c-2.2-1.5-5.2-1.1-7,1
		l-5.6,6.7c-1.7,2.1-1.7,5.1,0.2,7l3.9,4.1c-1.3,3-2.3,6.2-2.8,9.4l-5.5,1.1c-2.6,0.5-4.5,3-4.2,5.6l0.7,8.7
		c0.2,2.7,2.4,4.8,5.1,4.9l6,0.2c1.1,2.8,2.5,5.5,4.2,8.1l-3.3,5c-1.5,2.2-1.1,5.2,1,7l6.7,5.6c2.1,1.7,5.1,1.7,7-0.2l4.4-4.1
		c2.9,1.3,5.9,2.3,9,2.9l1.2,6c0.5,2.6,3,4.5,5.6,4.2l8.7-0.7c2.7-0.2,4.8-2.4,4.9-5.1l0.2-5.9c3.2-1.1,6.2-2.7,9-4.5l4.8,3.2
		c2.2,1.5,5.2,1.1,7-1l5.6-6.7c1.7-2.1,1.7-5.1-0.2-7l-3.9-4.1c1.4-3,2.5-6.2,3.1-9.5l5.3-1.1c2.6-0.5,4.5-3,4.2-5.6l-0.7-8.7
		c-0.2-2.7-2.4-4.8-5.1-4.9l-5.3-0.2c-1.1-3.1-2.6-6-4.4-8.7l2.9-4.4C359.9,174.2,359.5,171.2,357.5,169.5z M324.6,219.8
		c-9.4,0.8-17.7-6.2-18.5-15.6c-0.8-9.4,6.2-17.7,15.6-18.5c9.4-0.8,17.7,6.2,18.5,15.6C341.1,210.8,334,219.1,324.6,219.8z"/>
	<path id="XMLID_15_" class="st2" d="M217,243.3c-2.7,0.3-4.7,2.5-4.7,5.2l-0.1,5.4c0,2.7,2,5,4.6,5.3l3.9,0.5
		c0.7,2.4,1.6,4.7,2.8,6.8l-2.5,3.1c-1.7,2.1-1.6,5.1,0.3,7l3.8,3.8c1.9,1.9,4.9,2.1,7,0.5l3.2-2.4c2.2,1.3,4.6,2.4,7,3.1l0.4,4.1
		c0.3,2.7,2.5,4.7,5.2,4.7l5.4,0.1c2.7,0,5-2,5.3-4.6l0.5-3.9c2.7-0.7,5.2-1.7,7.6-3l3,2.4c2.1,1.7,5.1,1.6,7-0.3l3.8-3.8
		c1.9-1.9,2.1-4.9,0.5-7l-2.3-2.9c1.4-2.3,2.5-4.8,3.2-7.4l3.5-0.4c2.7-0.3,4.7-2.5,4.7-5.2l0.1-5.4c0-2.7-2-5-4.6-5.3l-3.4-0.4
		c-0.7-2.6-1.6-5.1-2.9-7.4l2.1-2.6c1.7-2.1,1.6-5.1-0.3-7l-3.8-3.8c-1.9-1.9-4.9-2.1-7-0.5l-2.6,2c-2.4-1.5-5-2.6-7.7-3.3l-0.3-3.3
		c-0.3-2.7-2.5-4.7-5.2-4.7l-5.4-0.1c-2.7,0-5,2-5.3,4.6l-0.4,3.3c-2.8,0.7-5.5,1.8-8,3.3l-2.7-2.2c-2.1-1.7-5.1-1.6-7,0.3l-3.9,3.8
		c-1.9,1.9-2.1,4.9-0.5,7l2.3,2.9c-1.3,2.3-2.4,4.8-3,7.4L217,243.3z M251.6,237.2c7.7,0.1,13.9,6.4,13.8,14.1
		c-0.1,7.7-6.4,13.9-14.1,13.8c-7.7-0.1-13.9-6.4-13.8-14.1C237.6,243.3,243.9,237.1,251.6,237.2z"/>
</g>
<g id="XMLID_1_">
</g>
<g id="XMLID_68_">
</g>
<g id="XMLID_69_">
</g>
<g id="XMLID_70_">
</g>
<g id="XMLID_71_">
</g>
<g id="XMLID_72_">
</g>
</svg>
